<svg width="173" height="44" viewBox="0 0 173 44" fill="none" xmlns="http://www.w3.org/2000/svg">
<g filter="url(#filter0_d_24_2259)">
<path d="M17.7695 18.2383C17.8984 17.6289 17.9629 17.0371 17.9629 16.4629V14.7227C17.9629 14.125 17.9512 13.5625 17.9277 13.0352C17.4355 11.8633 16.5859 11.0078 15.3789 10.4688C14.793 10.1992 13.9785 10.0586 12.9355 10.0469C11.9043 10.0234 10.9727 10.2402 10.1406 10.6973C9.30859 11.1426 8.62305 11.752 8.08398 12.5254C7.05273 14.002 6.53711 15.9941 6.53711 18.502C6.56055 20.3418 7.01758 21.8711 7.9082 23.0898C8.9043 24.4492 10.2109 25.1289 11.8281 25.1289C12.9883 25.1289 14.0723 24.6016 15.0801 23.5469C16.416 22.1641 17.3125 20.3945 17.7695 18.2383ZM19.6855 10.5566L19.8262 17.8164C19.8262 19.0938 19.8262 20.3945 19.8262 21.7188C19.8379 23.043 19.7969 24.3496 19.7031 25.6387C19.4922 28.5684 18.9473 30.9297 18.0684 32.7227C20.4355 31.293 21.7422 28.7031 21.9883 24.9531C22.1758 21.8359 22.2695 18.2969 22.2695 14.3359V10.5918H21.9883L19.6855 10.5566ZM18.7539 8.64062L22.0234 8.74609C23.5117 8.74609 24.4258 8.71094 24.7656 8.64062C25.1172 8.57031 25.3105 8.53516 25.3457 8.53516H25.416C25.6621 8.53516 25.8789 8.63477 26.0664 8.83398C26.2539 9.02148 26.3477 9.23242 26.3477 9.4668C26.3477 9.68945 26.2715 9.88867 26.1191 10.0645C25.9785 10.2285 25.8027 10.3281 25.5918 10.3633C25.2168 10.4336 24.7246 10.498 24.1152 10.5566L24.1504 14.3359C24.1504 18.3672 24.0391 21.9414 23.8164 25.0586C23.6172 28.0469 22.6387 30.5547 20.8809 32.582C19.0059 34.7383 16.6738 35.8164 13.8848 35.8164C11.916 35.8164 10.2637 35.2012 8.92773 33.9707C7.60352 32.752 6.94141 31.2227 6.94141 29.3828V29.3477C6.94141 29.0898 7.0293 28.8672 7.20508 28.6797C7.38086 28.5039 7.59766 28.416 7.85547 28.416C8.125 28.416 8.3418 28.5039 8.50586 28.6797C8.68164 28.8672 8.76953 29.207 8.76953 29.6992C8.76953 30.1914 8.91016 30.7188 9.19141 31.2812C9.47266 31.8555 9.85352 32.3477 10.334 32.7578C11.2949 33.5781 12.4668 33.9883 13.8496 33.9883C15.7129 33.9883 16.9199 31.9961 17.4707 28.0117C17.6699 26.6289 17.8105 24.9824 17.8926 23.0723C17.0137 24.8652 15.6426 26.0664 13.7793 26.6758C13.1816 26.875 12.4316 26.9746 11.5293 26.9746C10.6387 26.9746 9.75391 26.7461 8.875 26.2891C7.99609 25.832 7.25195 25.2168 6.64258 24.4434C5.37695 22.8613 4.73242 20.8926 4.70898 18.5371C4.70898 15.5371 5.41211 13.1055 6.81836 11.2422C8.36523 9.20312 10.5039 8.18359 13.2344 8.18359C15.0508 8.24219 16.5742 8.78125 17.8047 9.80078L17.7695 9.60742V9.57227C17.7695 9.32617 17.8691 9.10938 18.0684 8.92188C18.2676 8.73438 18.4844 8.64062 18.7188 8.64062H18.7539ZM34.8027 10.6621C32.7051 11.4707 31.3223 12.9883 30.6543 15.2148C30.4199 15.9883 30.3027 16.8613 30.3027 17.834C30.3027 18.8066 30.4141 19.6797 30.6367 20.4531C30.8594 21.2266 31.1582 21.9062 31.5332 22.4922C32.2598 23.582 33.2676 24.3906 34.5566 24.918C33.3848 23.2891 32.7988 20.8984 32.7988 17.7461C32.7988 14.5938 33.4668 12.2324 34.8027 10.6621ZM43.75 23.002C44.3008 22.2988 44.7168 21.4961 44.998 20.5938C45.291 19.6914 45.4375 18.8594 45.4375 18.0977C45.4375 17.3359 45.373 16.6621 45.2441 16.0762C45.1152 15.4902 44.9277 14.9219 44.6816 14.3711C44.4355 13.8203 44.1367 13.3047 43.7852 12.8242C43.4336 12.3438 43.041 11.9219 42.6074 11.5586C41.6582 10.7969 40.6211 10.416 39.4961 10.416C37.2227 10.416 35.7402 11.752 35.0488 14.4238C34.791 15.4082 34.6621 16.3223 34.6621 17.166C34.6621 17.998 34.6855 18.707 34.7324 19.293C34.7793 19.8672 34.8613 20.4414 34.9785 21.0156C35.0957 21.5781 35.2539 22.123 35.4531 22.6504C35.6523 23.1777 35.9102 23.6406 36.2266 24.0391C36.918 24.9062 37.8027 25.3398 38.8809 25.3398C39.9707 25.3398 40.9141 25.1289 41.7109 24.707C42.5195 24.2734 43.1992 23.7051 43.75 23.002ZM47.2656 17.9043C47.2656 19.252 47.0137 20.5117 46.5098 21.6836C46.0059 22.8555 45.3262 23.8633 44.4707 24.707C42.6543 26.4766 40.4512 27.3613 37.8613 27.3613C35.0137 27.3613 32.7344 26.4941 31.0234 24.7598C29.3242 23.0371 28.4746 20.7227 28.4746 17.8164C28.4746 15.0625 29.377 12.7773 31.1816 10.9609C32.9629 9.15625 35.1895 8.25391 37.8613 8.25391C40.5801 8.25391 42.8418 9.20312 44.6465 11.1016C46.3926 12.9297 47.2656 15.1973 47.2656 17.9043ZM59.8516 24.9883C60.3555 24.0039 60.7773 23.125 61.1172 22.3516C58.3398 17.3828 56.4648 10.9902 55.4922 3.17383C55.1992 3.19727 54.9004 3.20898 54.5957 3.20898H52.9785C53.6699 9.13867 55.2168 14.9043 57.6191 20.5059C58.2754 22.0176 59.0195 23.5117 59.8516 24.9883ZM71.7695 25.3926C72.3086 24.3027 72.7129 23.4707 72.9824 22.8965C70.4863 18.0098 68.6523 13.3926 67.4805 9.04492C67.2344 10.2402 66.877 11.6641 66.4082 13.3164C67.0645 15.7656 68.1074 18.4609 69.5371 21.4023C70.1816 22.7148 70.9258 24.0449 71.7695 25.3926ZM74.8633 0.976562C76.0352 1.1875 77.2891 1.29297 78.625 1.29297C79.9609 1.29297 81.2734 1.14062 82.5625 0.835938H82.7734C83.0312 0.835938 83.2539 0.929687 83.4414 1.11719C83.6289 1.29297 83.7227 1.49805 83.7227 1.73242C83.7227 1.95508 83.6465 2.1543 83.4941 2.33008C83.3535 2.49414 83.0898 2.61719 82.7031 2.69922C81.625 2.93359 80.582 3.06836 79.5742 3.10352C78.6484 9.94727 77.6406 15.1328 76.5508 18.6602C75.8828 20.8281 75.1973 22.627 74.4941 24.0566C73.791 25.4863 73.293 26.4766 73 27.0273C72.707 27.5781 72.4902 27.8945 72.3496 27.9766C72.2207 28.0703 72.0215 28.1172 71.752 28.1172C71.4941 28.1172 71.2715 27.9883 71.084 27.7305C68.8457 24.4727 66.959 20.6934 65.4238 16.3926C63.959 20.6465 62.377 24.291 60.6777 27.3262C60.5137 27.666 60.2559 27.8359 59.9043 27.8359C59.5527 27.8359 59.2832 27.6777 59.0957 27.3613C55.8145 22.0293 53.4355 15.7539 51.959 8.53516C51.584 6.67188 51.2969 4.87305 51.0977 3.13867C50.5117 3.0918 50.0254 3.05078 49.6387 3.01562C48.9355 2.93359 48.584 2.61133 48.584 2.04883C48.6191 1.76758 48.7246 1.55078 48.9004 1.39844C49.0762 1.23438 49.2812 1.15234 49.5156 1.15234H49.5859C50.9219 1.29297 52.5156 1.36328 54.3672 1.36328C56.2305 1.36328 58.2168 1.1875 60.3262 0.835938H60.4668C60.7363 0.835938 60.959 0.929687 61.1348 1.11719C61.3105 1.29297 61.3984 1.49805 61.3984 1.73242C61.3984 1.9668 61.3223 2.17188 61.1699 2.34766C61.0293 2.52344 60.7715 2.64063 60.3965 2.69922C59.1426 2.86328 58.1348 2.98633 57.373 3.06836C57.877 7.76758 58.9551 12.332 60.6074 16.7617C61.0293 17.9219 61.5098 19.0586 62.0488 20.1719C64.6035 14.1367 66.0449 8.73438 66.373 3.96484C66.3965 3.73047 66.4844 3.53711 66.6367 3.38477C66.8008 3.2207 67 3.13281 67.2344 3.12109C67.7383 3.09766 68.0605 3.34375 68.2012 3.85938C69.1621 9.15625 71.0723 14.7578 73.9316 20.6641C75.3848 16.9375 76.6445 11.0957 77.7109 3.13867C76.6094 3.0918 75.5488 2.98047 74.5293 2.80469C74.3184 2.76953 74.1367 2.66992 73.9844 2.50586C73.8438 2.33008 73.7734 2.11328 73.7734 1.85547C73.7734 1.58594 73.873 1.375 74.0723 1.22266C74.2832 1.05859 74.4883 0.976562 74.6875 0.976562H74.8633ZM91.4922 3.41992C90.8945 3.51367 90.0859 3.56055 89.0664 3.56055H88.9258V24.3027C89.1484 24.2793 89.3652 24.2676 89.5762 24.2676C89.998 24.2676 90.3672 24.2676 90.6836 24.2676C91 24.2676 91.2695 24.2793 91.4922 24.3027V3.41992ZM93.3555 11.2773C94.6914 9.21484 96.5137 8.18359 98.8223 8.18359C101.096 8.18359 102.783 9.00977 103.885 10.6621C104.834 12.0684 105.309 13.9434 105.309 16.2871C105.309 18.6191 104.998 21.2559 104.377 24.1973C105.115 24.1973 105.713 24.2324 106.17 24.3027C106.943 24.4199 107.33 24.7422 107.33 25.2695C107.33 25.5273 107.23 25.75 107.031 25.9375C106.832 26.125 106.662 26.2188 106.521 26.2188C106.381 26.2188 106.205 26.1953 105.994 26.1484C104.529 25.8789 102.631 25.9492 100.299 26.3594C100.275 26.3828 100.252 26.3945 100.229 26.3945C100.205 26.3945 100.117 26.3945 99.9648 26.3945C99.8242 26.3945 99.666 26.3008 99.4902 26.1133C99.3145 25.9141 99.2266 25.7031 99.2266 25.4805C99.2266 24.9648 99.4785 24.6543 99.9824 24.5488C100.814 24.373 101.652 24.2676 102.496 24.2324C103.141 21.2676 103.463 18.7363 103.463 16.6387C103.463 13.4863 102.684 11.4531 101.125 10.5391C100.527 10.1875 99.8594 10.0117 99.1211 10.0117C98.3945 10.0117 97.791 10.1113 97.3105 10.3105C96.8418 10.5098 96.4023 10.7793 95.9922 11.1191C95.5938 11.4473 95.2305 11.834 94.9023 12.2793C94.5742 12.7246 94.2988 13.1875 94.0762 13.668C93.5957 14.6875 93.3555 15.666 93.3555 16.6035L93.3203 24.4434C94.0352 24.502 94.6855 24.5957 95.2715 24.7246C95.8691 24.8418 96.2383 24.9883 96.3789 25.1641C96.5195 25.3281 96.5898 25.5332 96.5898 25.7793C96.5898 26.0254 96.4902 26.2305 96.291 26.3945C96.1035 26.5586 95.8926 26.6406 95.6582 26.6406H95.4824C93.5254 26.2773 91.7734 26.0957 90.2266 26.0957C88.6797 26.0957 86.9395 26.2773 85.0059 26.6406H84.8301C84.5605 26.6406 84.3379 26.5527 84.1621 26.377C83.998 26.1895 83.916 25.9844 83.916 25.7617C83.916 25.5273 83.9805 25.3281 84.1094 25.1641C84.25 24.9883 84.4727 24.8711 84.7773 24.8125C85.0938 24.7422 85.457 24.6777 85.8672 24.6191C86.2891 24.5605 86.6992 24.502 87.0977 24.4434V3.49023L84.3906 3.2793C84.1562 3.24414 83.9629 3.13867 83.8105 2.96289C83.6699 2.78711 83.5996 2.57031 83.5996 2.3125C83.5996 2.04297 83.7051 1.83203 83.916 1.67969C84.127 1.52734 84.332 1.45117 84.5312 1.45117H84.6367C84.6484 1.45117 84.7832 1.46875 85.041 1.50391C85.2988 1.52734 85.6387 1.55664 86.0605 1.5918C87.1621 1.68555 88.1758 1.73242 89.1016 1.73242C90.3906 1.73242 91.4395 1.63867 92.248 1.45117H92.4238C92.6934 1.45117 92.916 1.54492 93.0918 1.73242C93.2676 1.9082 93.3555 2.11328 93.3555 2.34766V11.2773ZM115.961 10.7676C112.879 11.8809 111.338 14.2188 111.338 17.7812C111.338 20.0195 112.111 21.8945 113.658 23.4062C114.139 23.875 114.689 24.2676 115.311 24.584C114.303 23.084 113.799 21.0332 113.799 18.4316C113.799 16.5918 113.934 15.2207 114.203 14.3184C114.625 12.8887 115.211 11.7051 115.961 10.7676ZM115.662 17.6758C116.975 18.0859 118.48 18.291 120.18 18.291C121.879 18.291 123.531 17.9336 125.137 17.2188V16.9199C125.137 14.084 124.229 12.127 122.412 11.0488C121.779 10.6738 121.018 10.4219 120.127 10.293C117.268 10.6211 115.779 13.082 115.662 17.6758ZM126.965 16.8848L126.93 17.9043C126.812 18.877 125.266 19.5684 122.289 19.9785C121.34 20.1074 120.332 20.1719 119.266 20.1719C118.211 20.1719 117.021 19.9902 115.697 19.627C115.955 22.2871 116.846 24.0859 118.369 25.0234C118.932 25.3633 119.482 25.5332 120.021 25.5332C120.572 25.5332 121.035 25.498 121.41 25.4277C121.785 25.3457 122.154 25.2344 122.518 25.0938C123.338 24.7539 123.912 24.3438 124.24 23.8633C124.439 23.6289 124.668 23.5117 124.926 23.5117C125.195 23.5117 125.424 23.6113 125.611 23.8105C125.799 23.998 125.893 24.2148 125.893 24.4609C125.893 24.6953 125.816 24.8828 125.664 25.0234C125.16 25.8086 124.223 26.4297 122.852 26.8867C120.309 27.7188 117.865 27.6484 115.521 26.6758C113.061 25.668 111.314 23.9688 110.283 21.5781C109.768 20.4062 109.51 19.1113 109.51 17.6934C109.51 16.2637 109.732 14.9688 110.178 13.8086C110.623 12.6367 111.256 11.6523 112.076 10.8555C113.752 9.21484 116.066 8.39453 119.02 8.39453C124.316 8.61719 126.965 11.4473 126.965 16.8848ZM137.002 11.2422C136.557 11.3125 135.748 11.3477 134.576 11.3477H134.436V24.2676C134.658 24.2441 134.875 24.2324 135.086 24.2324C135.086 24.2324 135.725 24.2324 137.002 24.2324V11.2422ZM146.828 15.1445C146.898 14.9922 146.934 14.7812 146.934 14.5117C146.934 14.2422 146.805 13.9844 146.547 13.7383C146.301 13.4805 145.996 13.3516 145.633 13.3516C145.27 13.3516 144.959 13.4805 144.701 13.7383C144.455 13.9844 144.332 14.2422 144.332 14.5117C144.332 14.7812 144.367 14.9922 144.438 15.1445C144.508 15.2969 144.602 15.4375 144.719 15.5664C144.965 15.8242 145.27 15.9531 145.633 15.9531C146.184 15.9531 146.582 15.6836 146.828 15.1445ZM138.865 11.418C140.037 9.78906 141.584 8.97461 143.506 8.97461C145.1 9.02148 146.389 9.50781 147.373 10.4336C148.381 11.3594 148.885 12.5723 148.885 14.0723C148.885 15.0684 148.592 15.9297 148.006 16.6562C147.396 17.4062 146.605 17.7812 145.633 17.7812C144.766 17.7812 144.027 17.4766 143.418 16.8672C142.809 16.2578 142.504 15.5195 142.504 14.6523C142.504 13.7969 142.809 13.0586 143.418 12.4375C144.027 11.8047 144.766 11.4883 145.633 11.4883C145.691 11.4883 145.744 11.4941 145.791 11.5059C145.85 11.5176 145.908 11.5234 145.967 11.5234C145.346 11.043 144.613 10.8027 143.77 10.8027C142.926 10.8027 142.258 10.9434 141.766 11.2246C141.273 11.4941 140.852 11.8398 140.5 12.2617C140.16 12.6719 139.885 13.123 139.674 13.6152C139.463 14.0957 139.299 14.5469 139.182 14.9688C138.971 15.6836 138.865 16.2285 138.865 16.6035L138.83 24.4082C139.24 24.4434 139.65 24.4961 140.061 24.5664C140.482 24.6367 140.857 24.707 141.186 24.7773C141.795 24.8945 142.1 25.2051 142.1 25.709C142.1 25.9668 142 26.1836 141.801 26.3594C141.602 26.5234 141.391 26.6055 141.168 26.6055H140.992C139.035 26.2422 137.283 26.0605 135.736 26.0605C134.213 26.0605 132.473 26.2422 130.516 26.6055H130.34C130.07 26.6055 129.854 26.5176 129.689 26.3418C129.525 26.1543 129.443 25.9492 129.443 25.7266C129.443 25.2227 129.684 24.9062 130.164 24.7773C130.574 24.707 130.984 24.6367 131.395 24.5664C131.805 24.4961 132.209 24.4434 132.607 24.4082V11.3125C131.061 11.2422 130.158 11.1543 129.9 11.0488C129.666 11.0254 129.473 10.9316 129.32 10.7676C129.18 10.5918 129.109 10.375 129.109 10.1172C129.109 9.84766 129.209 9.63086 129.408 9.4668C129.619 9.30273 129.83 9.2207 130.041 9.2207H130.164C130.246 9.30273 130.867 9.37305 132.027 9.43164C133.199 9.47852 134.061 9.50195 134.611 9.50195C135.912 9.50195 136.768 9.45508 137.178 9.36133C137.588 9.26758 137.881 9.2207 138.057 9.2207C138.244 9.2207 138.426 9.32031 138.602 9.51953C138.777 9.70703 138.865 9.91797 138.865 10.1523V11.418ZM157.48 10.7676C154.398 11.8809 152.857 14.2188 152.857 17.7812C152.857 20.0195 153.631 21.8945 155.178 23.4062C155.658 23.875 156.209 24.2676 156.83 24.584C155.822 23.084 155.318 21.0332 155.318 18.4316C155.318 16.5918 155.453 15.2207 155.723 14.3184C156.145 12.8887 156.73 11.7051 157.48 10.7676ZM157.182 17.6758C158.494 18.0859 160 18.291 161.699 18.291C163.398 18.291 165.051 17.9336 166.656 17.2188V16.9199C166.656 14.084 165.748 12.127 163.932 11.0488C163.299 10.6738 162.537 10.4219 161.646 10.293C158.787 10.6211 157.299 13.082 157.182 17.6758ZM168.484 16.8848L168.449 17.9043C168.332 18.877 166.785 19.5684 163.809 19.9785C162.859 20.1074 161.852 20.1719 160.785 20.1719C159.73 20.1719 158.541 19.9902 157.217 19.627C157.475 22.2871 158.365 24.0859 159.889 25.0234C160.451 25.3633 161.002 25.5332 161.541 25.5332C162.092 25.5332 162.555 25.498 162.93 25.4277C163.305 25.3457 163.674 25.2344 164.037 25.0938C164.857 24.7539 165.432 24.3438 165.76 23.8633C165.959 23.6289 166.188 23.5117 166.445 23.5117C166.715 23.5117 166.943 23.6113 167.131 23.8105C167.318 23.998 167.412 24.2148 167.412 24.4609C167.412 24.6953 167.336 24.8828 167.184 25.0234C166.68 25.8086 165.742 26.4297 164.371 26.8867C161.828 27.7188 159.385 27.6484 157.041 26.6758C154.58 25.668 152.834 23.9688 151.803 21.5781C151.287 20.4062 151.029 19.1113 151.029 17.6934C151.029 16.2637 151.252 14.9688 151.697 13.8086C152.143 12.6367 152.775 11.6523 153.596 10.8555C155.271 9.21484 157.586 8.39453 160.539 8.39453C165.836 8.61719 168.484 11.4473 168.484 16.8848Z" fill="#53735E"/>
</g>
<defs>
<filter id="filter0_d_24_2259" x="0.708984" y="0.835938" width="171.775" height="42.9805" filterUnits="userSpaceOnUse" color-interpolation-filters="sRGB">
<feFlood flood-opacity="0" result="BackgroundImageFix"/>
<feColorMatrix in="SourceAlpha" type="matrix" values="0 0 0 0 0 0 0 0 0 0 0 0 0 0 0 0 0 0 127 0" result="hardAlpha"/>
<feOffset dy="4"/>
<feGaussianBlur stdDeviation="2"/>
<feComposite in2="hardAlpha" operator="out"/>
<feColorMatrix type="matrix" values="0 0 0 0 0 0 0 0 0 0 0 0 0 0 0 0 0 0 0.25 0"/>
<feBlend mode="normal" in2="BackgroundImageFix" result="effect1_dropShadow_24_2259"/>
<feBlend mode="normal" in="SourceGraphic" in2="effect1_dropShadow_24_2259" result="shape"/>
</filter>
</defs>
</svg>
